<svg id="Группа_1" data-name="Группа 1" xmlns="http://www.w3.org/2000/svg" width="184" height="177" viewBox="0 0 184 177">
  <defs>
    <style>
      .cls-1 {
        fill: #ff0c00;
      }

      .cls-1, .cls-2 {
        fill-rule: evenodd;
      }

      .cls-2 {
        fill: #a0d3fe;
      }
    </style>
  </defs>
  <path id="Красная_стрелка" data-name="Красная стрелка" class="cls-1" d="M1028.64,574c-1.5,1.8-22.4,20.644-59.3,25.292-35.57,4.48-64.564-14.769-64.564-14.769l5.263-7.488L867,582.1l29.65,40.467,0.02-11.288s36.759,19.669,72.672,16.347c37.688-3.488,73.648-30.351,73.648-30.351S1028.22,589.434,1028.64,574Z" transform="translate(-867 -451)"/>
  <path id="Голубенькая_стрелка" data-name="Голубенькая стрелка" class="cls-2" d="M889.042,505.632c1.507-1.825,22.442-20.886,59.416-25.589,35.639-4.533,64.692,14.942,64.692,14.942l-5.28,7.576,43.13-5.117L1021.29,456.5l-0.02,11.42s-36.829-19.9-72.812-16.538c-37.764,3.528-73.791,30.706-73.791,30.706S889.464,490.019,889.042,505.632Z" transform="translate(-867 -451)"/>
</svg>
